<svg xmlns="http://www.w3.org/2000/svg" viewBox="0 0 24 24" width="24" height="24">
  <path fill="#000" fill-rule="evenodd" clip-rule="evenodd" d="M3.69409 2.5H0V1H4.86572L7.81445 12.8106C7.84204 12.9219 7.94214 13 8.05688 13H19.1235C19.2297 13 19.3242 12.9331 19.3594 12.833L21.8237 5.83301C21.8809 5.67039 21.7603 5.5 21.5879 5.5H7.5L7.16357 4H21.5879C22.7947 4 23.6392 5.19275 23.2385 6.3311L20.7744 13.3311C20.5278 14.0315 19.866 14.5 19.1235 14.5H8.05688C7.25366 14.5 6.55371 13.9532 6.35913 13.1739L3.69409 2.5ZM19 17.25C19 18.0784 18.3284 18.75 17.5 18.75C16.6716 18.75 16 18.0784 16 17.25C16 16.4216 16.6716 15.75 17.5 15.75C18.3284 15.75 19 16.4216 19 17.25ZM9.5 18.75C10.3284 18.75 11 18.0784 11 17.25C11 16.4216 10.3284 15.75 9.5 15.75C8.67163 15.75 8 16.4216 8 17.25C8 18.0784 8.67163 18.75 9.5 18.75Z"/>
</svg>
